<svg xmlns="http://www.w3.org/2000/svg" viewBox="0 0 512 512" role="img" aria-label="aimusiccreator logo">
  <defs>
    <linearGradient id="bg_aimusiccreator" x1="0" y1="0" x2="1" y2="1">
      <stop offset="0%" stop-color="#263238"/>
      <stop offset="100%" stop-color="#00E676"/>
    </linearGradient>
    <radialGradient id="glow_aimusiccreator" cx="50%" cy="52%" r="42%">
      <stop offset="0%" stop-color="#ffffff" stop-opacity="0.35"/>
      <stop offset="60%" stop-color="#ffffff" stop-opacity="0.08"/>
      <stop offset="100%" stop-color="#ffffff" stop-opacity="0"/>
    </radialGradient>
    <filter id="shadow_aimusiccreator" x="-10%" y="-10%" width="120%" height="120%">
      <feDropShadow dx="0" dy="4" stdDeviation="6" flood-color="#000000" flood-opacity="0.22"/>
    </filter>
  </defs>
  <rect x="0" y="0" width="512" height="512" rx="96" ry="96" fill="url(#bg_aimusiccreator)"/>
  <circle cx="256" cy="266" r="180" fill="url(#glow_aimusiccreator)"/>
  <g transform="translate(102.4, 102.4) scale(1.2)" fill="white" filter="url(#shadow_aimusiccreator)">
    <path d="M197.58,129.06l-51.61-19-19-51.65a15.92,15.92,0,0,0-29.88,0L78.07,110l-51.65,19a15.92,15.92,0,0,0,0,29.88L78,178l19,51.62a15.92,15.92,0,0,0,29.88,0l19-51.61,51.65-19a15.92,15.92,0,0,0,0-29.88ZM144.48,164a8,8,0,0,0-4.73,4.72L120,222.33l-19.75-53.63A8,8,0,0,0,95.53,164L41.9,144.25,95.53,124.5a8,8,0,0,0,4.72-4.73L120,66.14l19.75,53.63a8,8,0,0,0,4.73,4.73l53.63,19.75Z"/>
  </g>
</svg>
