<svg xmlns="http://www.w3.org/2000/svg" viewBox="0 0 512 512" role="img" aria-label="anti_eavesdrop logo">
  <defs>
    <linearGradient id="bg_anti_eavesdrop" x1="0" y1="0" x2="1" y2="1">
      <stop offset="0%" stop-color="#455A64"/>
      <stop offset="100%" stop-color="#29B6F6"/>
    </linearGradient>
    <radialGradient id="glow_anti_eavesdrop" cx="50%" cy="52%" r="42%">
      <stop offset="0%" stop-color="#ffffff" stop-opacity="0.35"/>
      <stop offset="60%" stop-color="#ffffff" stop-opacity="0.08"/>
      <stop offset="100%" stop-color="#ffffff" stop-opacity="0"/>
    </radialGradient>
    <filter id="shadow_anti_eavesdrop" x="-10%" y="-10%" width="120%" height="120%">
      <feDropShadow dx="0" dy="4" stdDeviation="6" flood-color="#000000" flood-opacity="0.22"/>
    </filter>
  </defs>
  <rect x="0" y="0" width="512" height="512" rx="96" ry="96" fill="url(#bg_anti_eavesdrop)"/>
  <circle cx="256" cy="266" r="180" fill="url(#glow_anti_eavesdrop)"/>
  <g transform="translate(102.4, 102.4) scale(1.2)" fill="white" filter="url(#shadow_anti_eavesdrop)">
    <path d="M208,40H48A16,16,0,0,0,32,56v58.78c0,89.61,75.82,119.34,91,124.39a15.53,15.53,0,0,0,10,0c15.2-5.05,91-34.78,91-124.39V56A16,16,0,0,0,208,40Z"/>
  </g>
</svg>
