<svg xmlns="http://www.w3.org/2000/svg" viewBox="0 0 512 512" role="img" aria-label="brainboost_app logo">
  <defs>
    <linearGradient id="bg_brainboost_app" x1="0" y1="0" x2="1" y2="1">
      <stop offset="0%" stop-color="#6200EA"/>
      <stop offset="100%" stop-color="#FF6D00"/>
    </linearGradient>
    <radialGradient id="glow_brainboost_app" cx="50%" cy="52%" r="42%">
      <stop offset="0%" stop-color="#ffffff" stop-opacity="0.35"/>
      <stop offset="60%" stop-color="#ffffff" stop-opacity="0.08"/>
      <stop offset="100%" stop-color="#ffffff" stop-opacity="0"/>
    </radialGradient>
    <filter id="shadow_brainboost_app" x="-10%" y="-10%" width="120%" height="120%">
      <feDropShadow dx="0" dy="4" stdDeviation="6" flood-color="#000000" flood-opacity="0.22"/>
    </filter>
  </defs>
  <rect x="0" y="0" width="512" height="512" rx="96" ry="96" fill="url(#bg_brainboost_app)"/>
  <circle cx="256" cy="266" r="180" fill="url(#glow_brainboost_app)"/>
  <g transform="translate(102.4, 102.4) scale(1.2)" fill="white" filter="url(#shadow_brainboost_app)">
    <path d="M248,128a56,56,0,0,0-26.81-47.85,55.69,55.69,0,0,0-9.73-48.46A56,56,0,0,0,128,16a56,56,0,0,0-83.46,15.69,55.69,55.69,0,0,0-9.73,48.46,56,56,0,0,0,0,95.7,55.69,55.69,0,0,0,9.73,48.46A56,56,0,0,0,128,240a56,56,0,0,0,83.46-15.69,55.69,55.69,0,0,0,9.73-48.46A56,56,0,0,0,248,128Z"/>
  </g>
</svg>
