<svg xmlns="http://www.w3.org/2000/svg" viewBox="0 0 512 512" role="img" aria-label="chefin_app logo">
  <defs>
    <linearGradient id="bg_chefin_app" x1="0" y1="0" x2="1" y2="1">
      <stop offset="0%" stop-color="#FF8C00"/>
      <stop offset="100%" stop-color="#4CAF50"/>
    </linearGradient>
    <filter id="shadow_chefin_app" x="-20%" y="-20%" width="140%" height="140%">
      <feDropShadow dx="0" dy="4" stdDeviation="8" flood-color="#000000" flood-opacity="0.25"/>
    </filter>
  </defs>
  <rect width="512" height="512" rx="96" fill="url(#bg_chefin_app)"/>
  <g transform="translate(128,128) scale(1.0)" fill="white" filter="url(#shadow_chefin_app)">
    <path d="M240,112a56.06,56.06,0,0,0-56-56c-1.77,0-3.54.1-5.29.26a56,56,0,0,0-101.42,0C75.54,56.1,73.77,56,72,56A56,56,0,0,0,48,162.59V208a16,16,0,0,0,16,16H192a16,16,0,0,0,16-16V162.59A56.09,56.09,0,0,0,240,112Zm-48,96H64V167.42a55.49,55.49,0,0,0,8,.58H184a55.49,55.49,0,0,0,8-.58Zm-8-56H170.25l5.51-22.06a8,8,0,0,0-15.52-3.88L153.75,152H136V128a8,8,0,0,0-16,0v24H102.25l-6.49-25.94a8,8,0,1,0-15.52,3.88L85.75,152H72a40,40,0,0,1,0-80l.58,0A55.21,55.21,0,0,0,72,80a8,8,0,0,0,16,0,40,40,0,0,1,80,0,8,8,0,0,0,16,0,55.21,55.21,0,0,0-.58-8l.58,0a40,40,0,0,1,0,80Z"/>
  </g>
</svg>
