<svg xmlns="http://www.w3.org/2000/svg" viewBox="0 0 512 512" role="img" aria-label="codelab_app logo">
  <defs>
    <linearGradient id="bg_codelab_app" x1="0" y1="0" x2="1" y2="1">
      <stop offset="0%" stop-color="#6200EA"/>
      <stop offset="100%" stop-color="#FF6D00"/>
    </linearGradient>
    <filter id="shadow_codelab_app" x="-20%" y="-20%" width="140%" height="140%">
      <feDropShadow dx="0" dy="4" stdDeviation="8" flood-color="#000000" flood-opacity="0.25"/>
    </filter>
  </defs>
  <rect width="512" height="512" rx="96" fill="url(#bg_codelab_app)"/>
  <g transform="translate(128,128) scale(1.0)" fill="white" filter="url(#shadow_codelab_app)">
    <path d="M69.12,94.15,28.5,128l40.62,33.85a8,8,0,1,1-10.24,12.29l-48-40a8,8,0,0,1,0-12.29l48-40a8,8,0,0,1,10.24,12.3Zm176,27.7-48-40a8,8,0,1,0-10.24,12.3L227.5,128l-40.62,33.85a8,8,0,1,0,10.24,12.29l48-40a8,8,0,0,0,0-12.29ZM162.73,32.48a8,8,0,0,0-10.25,4.79l-64,176a8,8,0,0,0,4.79,10.26A8.14,8.14,0,0,0,96,224a8,8,0,0,0,7.52-5.27l64-176A8,8,0,0,0,162.73,32.48Z"/>
  </g>
</svg>
