<svg xmlns="http://www.w3.org/2000/svg" viewBox="0 0 512 512" role="img" aria-label="creativehub_app logo">
  <defs>
    <linearGradient id="bg_creativehub_app" x1="0" y1="0" x2="1" y2="1">
      <stop offset="0%" stop-color="#0D47A1"/>
      <stop offset="100%" stop-color="#448AFF"/>
    </linearGradient>
    <filter id="shadow_creativehub_app" x="-20%" y="-20%" width="140%" height="140%">
      <feDropShadow dx="0" dy="4" stdDeviation="8" flood-color="#000000" flood-opacity="0.25"/>
    </filter>
  </defs>
  <rect width="512" height="512" rx="96" fill="url(#bg_creativehub_app)"/>
  <g transform="translate(128,128) scale(1.0)" fill="white" filter="url(#shadow_creativehub_app)">
    <path d="M223.68,66.15,135.68,18h0a15.88,15.88,0,0,0-15.36,0l-88,48.17a16,16,0,0,0-8.32,14v95.64a16,16,0,0,0,8.32,14l88,48.17a15.88,15.88,0,0,0,15.36,0l88-48.17a16,16,0,0,0,8.32-14V80.18A16,16,0,0,0,223.68,66.15ZM128,32h0l80.34,44L128,120,47.66,76ZM40,90l80,43.78v85.79L40,175.82Zm96,129.57V133.82L216,90v85.78Z"/>
  </g>
</svg>
