<svg xmlns="http://www.w3.org/2000/svg" viewBox="0 0 512 512" role="img" aria-label="creativehub_app logo">
  <defs>
    <linearGradient id="bg_creativehub_app" x1="0" y1="0" x2="1" y2="1">
      <stop offset="0%" stop-color="#0D47A1"/>
      <stop offset="100%" stop-color="#448AFF"/>
    </linearGradient>
    <radialGradient id="glow_creativehub_app" cx="50%" cy="52%" r="42%">
      <stop offset="0%" stop-color="#ffffff" stop-opacity="0.35"/>
      <stop offset="60%" stop-color="#ffffff" stop-opacity="0.08"/>
      <stop offset="100%" stop-color="#ffffff" stop-opacity="0"/>
    </radialGradient>
    <filter id="shadow_creativehub_app" x="-10%" y="-10%" width="120%" height="120%">
      <feDropShadow dx="0" dy="4" stdDeviation="6" flood-color="#000000" flood-opacity="0.22"/>
    </filter>
  </defs>
  <rect x="0" y="0" width="512" height="512" rx="96" ry="96" fill="url(#bg_creativehub_app)"/>
  <circle cx="256" cy="266" r="180" fill="url(#glow_creativehub_app)"/>
  <g transform="translate(102.4, 102.4) scale(1.2)" fill="white" filter="url(#shadow_creativehub_app)">
    <path d="M88,232a8,8,0,0,1-8,8H56a8,8,0,0,1-8-8,64,64,0,0,1,64-64V104a8,8,0,0,1,3.16-6.38l72-54.66a15.77,15.77,0,0,1,21.66,1.29l21.54,21.51a15.82,15.82,0,0,1,1.24,21.59L177,159.63A8,8,0,0,1,170.7,163l-42.78.32A64,64,0,0,1,88,232Z"/>
  </g>
</svg>
