<svg xmlns="http://www.w3.org/2000/svg" viewBox="0 0 512 512" role="img" aria-label="dados_flutter logo">
  <defs>
    <linearGradient id="bg_dados_flutter" x1="0" y1="0" x2="1" y2="1">
      <stop offset="0%" stop-color="#7B1FA2"/>
      <stop offset="100%" stop-color="#FFEB3B"/>
    </linearGradient>
    <filter id="shadow_dados_flutter" x="-20%" y="-20%" width="140%" height="140%">
      <feDropShadow dx="0" dy="4" stdDeviation="8" flood-color="#000000" flood-opacity="0.25"/>
    </filter>
  </defs>
  <rect width="512" height="512" rx="96" fill="url(#bg_dados_flutter)"/>
  <g transform="translate(128,128) scale(1.0)" fill="white" filter="url(#shadow_dados_flutter)">
    <path d="M192,32H64A32,32,0,0,0,32,64V192a32,32,0,0,0,32,32H192a32,32,0,0,0,32-32V64A32,32,0,0,0,192,32Zm16,160a16,16,0,0,1-16,16H64a16,16,0,0,1-16-16V64A16,16,0,0,1,64,48H192a16,16,0,0,1,16,16ZM104,92A12,12,0,1,1,92,80,12,12,0,0,1,104,92Zm72,0a12,12,0,1,1-12-12A12,12,0,0,1,176,92Zm-72,72a12,12,0,1,1-12-12A12,12,0,0,1,104,164Zm36-36a12,12,0,1,1-12-12A12,12,0,0,1,140,128Zm36,36a12,12,0,1,1-12-12A12,12,0,0,1,176,164Z"/>
  </g>
</svg>
