<svg xmlns="http://www.w3.org/2000/svg" viewBox="0 0 512 512" role="img" aria-label="eventonline_app logo">
  <defs>
    <linearGradient id="bg_eventonline_app" x1="0" y1="0" x2="1" y2="1">
      <stop offset="0%" stop-color="#0D47A1"/>
      <stop offset="100%" stop-color="#448AFF"/>
    </linearGradient>
    <filter id="shadow_eventonline_app" x="-20%" y="-20%" width="140%" height="140%">
      <feDropShadow dx="0" dy="4" stdDeviation="8" flood-color="#000000" flood-opacity="0.25"/>
    </filter>
  </defs>
  <rect width="512" height="512" rx="96" fill="url(#bg_eventonline_app)"/>
  <g transform="translate(128,128) scale(1.0)" fill="white" filter="url(#shadow_eventonline_app)">
    <path d="M251.77,73a8,8,0,0,0-8.21.39L208,97.05V72a16,16,0,0,0-16-16H32A16,16,0,0,0,16,72V184a16,16,0,0,0,16,16H192a16,16,0,0,0,16-16V159l35.56,23.71A8,8,0,0,0,248,184a8,8,0,0,0,8-8V80A8,8,0,0,0,251.77,73ZM192,184H32V72H192V184Zm48-22.95-32-21.33V116.28L240,95Z"/>
  </g>
</svg>
