<svg xmlns="http://www.w3.org/2000/svg" viewBox="0 0 512 512" role="img" aria-label="factcheck_app logo">
  <defs>
    <linearGradient id="bg_factcheck_app" x1="0" y1="0" x2="1" y2="1">
      <stop offset="0%" stop-color="#6200EA"/>
      <stop offset="100%" stop-color="#FF6D00"/>
    </linearGradient>
    <radialGradient id="glow_factcheck_app" cx="50%" cy="52%" r="42%">
      <stop offset="0%" stop-color="#ffffff" stop-opacity="0.35"/>
      <stop offset="60%" stop-color="#ffffff" stop-opacity="0.08"/>
      <stop offset="100%" stop-color="#ffffff" stop-opacity="0"/>
    </radialGradient>
    <filter id="shadow_factcheck_app" x="-10%" y="-10%" width="120%" height="120%">
      <feDropShadow dx="0" dy="4" stdDeviation="6" flood-color="#000000" flood-opacity="0.22"/>
    </filter>
  </defs>
  <rect x="0" y="0" width="512" height="512" rx="96" ry="96" fill="url(#bg_factcheck_app)"/>
  <circle cx="256" cy="266" r="180" fill="url(#glow_factcheck_app)"/>
  <g transform="translate(102.4, 102.4) scale(1.2)" fill="white" filter="url(#shadow_factcheck_app)">
    <path d="M229.66,66.34l-56-56A8,8,0,0,0,168,8H88a16,16,0,0,0-16,16V40H56A16,16,0,0,0,40,56V216a16,16,0,0,0,16,16H168a16,16,0,0,0,16-16V200h16a16,16,0,0,0,16-16V72A8,8,0,0,0,229.66,66.34ZM168,216H56V56H88V184a16,16,0,0,0,16,16h64Zm32-32H104V24h64V64a8,8,0,0,0,8,8h24Z"/>
  </g>
</svg>
