<svg xmlns="http://www.w3.org/2000/svg" viewBox="0 0 512 512" role="img" aria-label="fake_shutdown logo">
  <defs>
    <linearGradient id="bg_fake_shutdown" x1="0" y1="0" x2="1" y2="1">
      <stop offset="0%" stop-color="#455A64"/>
      <stop offset="100%" stop-color="#29B6F6"/>
    </linearGradient>
    <filter id="shadow_fake_shutdown" x="-20%" y="-20%" width="140%" height="140%">
      <feDropShadow dx="0" dy="4" stdDeviation="8" flood-color="#000000" flood-opacity="0.25"/>
    </filter>
  </defs>
  <rect width="512" height="512" rx="96" fill="url(#bg_fake_shutdown)"/>
  <g transform="translate(128,128) scale(1.0)" fill="white" filter="url(#shadow_fake_shutdown)">
    <path d="M120,128V48a8,8,0,0,1,16,0v80a8,8,0,0,1-16,0Zm60.37-78.7a8,8,0,0,0-8.74,13.4C194.74,77.77,208,101.57,208,128a80,80,0,0,1-160,0c0-26.43,13.26-50.23,36.37-65.3a8,8,0,0,0-8.74-13.4C47.9,67.38,32,96.06,32,128a96,96,0,0,0,192,0C224,96.06,208.1,67.38,180.37,49.3Z"/>
  </g>
</svg>
