<svg xmlns="http://www.w3.org/2000/svg" viewBox="0 0 512 512" role="img" aria-label="healthybites_app logo">
  <defs>
    <linearGradient id="bg_healthybites_app" x1="0" y1="0" x2="1" y2="1">
      <stop offset="0%" stop-color="#FF8C00"/>
      <stop offset="100%" stop-color="#4CAF50"/>
    </linearGradient>
    <filter id="shadow_healthybites_app" x="-20%" y="-20%" width="140%" height="140%">
      <feDropShadow dx="0" dy="4" stdDeviation="8" flood-color="#000000" flood-opacity="0.25"/>
    </filter>
  </defs>
  <rect width="512" height="512" rx="96" fill="url(#bg_healthybites_app)"/>
  <g transform="translate(128,128) scale(1.0)" fill="white" filter="url(#shadow_healthybites_app)">
    <path d="M232,64H203.31l26.35-26.34a8,8,0,0,0-11.32-11.32L192,52.69V24a8,8,0,0,0-16,0V56.57a64,64,0,0,0-77.2,10.12l0,0,0,0,0,0c-40.1,39.39-70.25,133.08-73.19,142.45a16,16,0,0,0,21.26,21.26c9.37-2.94,103.18-33.13,142.47-73.21A64,64,0,0,0,199.43,80H232a8,8,0,0,0,0-16Zm-54.12,82c-8.94,9.12-21.25,17.8-34.85,25.73l-25.38-25.39a8,8,0,0,0-11.32,11.32l22.09,22.09c-40.87,21.19-86.32,35.42-87,35.63A7.93,7.93,0,0,0,40,216a7.93,7.93,0,0,0,.59-1.41c.29-.93,28-89.58,64-130.67l33.77,33.77a8,8,0,0,0,11.32-11.32L116.18,72.88A48,48,0,0,1,177.88,146Z"/>
  </g>
</svg>
