<svg xmlns="http://www.w3.org/2000/svg" viewBox="0 0 512 512" role="img" aria-label="hospedajeco logo">
  <defs>
    <linearGradient id="bg_hospedajeco" x1="0" y1="0" x2="1" y2="1">
      <stop offset="0%" stop-color="#00ACC1"/>
      <stop offset="100%" stop-color="#FFAB00"/>
    </linearGradient>
    <filter id="shadow_hospedajeco" x="-20%" y="-20%" width="140%" height="140%">
      <feDropShadow dx="0" dy="4" stdDeviation="8" flood-color="#000000" flood-opacity="0.25"/>
    </filter>
  </defs>
  <rect width="512" height="512" rx="96" fill="url(#bg_hospedajeco)"/>
  <g transform="translate(128,128) scale(1.0)" fill="white" filter="url(#shadow_hospedajeco)">
    <path d="M219.31,108.68l-80-80a16,16,0,0,0-22.62,0l-80,80A15.87,15.87,0,0,0,32,120v96a8,8,0,0,0,8,8h64a8,8,0,0,0,8-8V160h32v56a8,8,0,0,0,8,8h64a8,8,0,0,0,8-8V120A15.87,15.87,0,0,0,219.31,108.68ZM208,208H160V152a8,8,0,0,0-8-8H104a8,8,0,0,0-8,8v56H48V120l80-80,80,80Z"/>
  </g>
</svg>
