<svg xmlns="http://www.w3.org/2000/svg" viewBox="0 0 512 512" role="img" aria-label="hotelmaster_app logo">
  <defs>
    <linearGradient id="bg_hotelmaster_app" x1="0" y1="0" x2="1" y2="1">
      <stop offset="0%" stop-color="#37474F"/>
      <stop offset="100%" stop-color="#64B5F6"/>
    </linearGradient>
    <radialGradient id="glow_hotelmaster_app" cx="50%" cy="52%" r="42%">
      <stop offset="0%" stop-color="#ffffff" stop-opacity="0.35"/>
      <stop offset="60%" stop-color="#ffffff" stop-opacity="0.08"/>
      <stop offset="100%" stop-color="#ffffff" stop-opacity="0"/>
    </radialGradient>
    <filter id="shadow_hotelmaster_app" x="-10%" y="-10%" width="120%" height="120%">
      <feDropShadow dx="0" dy="4" stdDeviation="6" flood-color="#000000" flood-opacity="0.22"/>
    </filter>
  </defs>
  <rect x="0" y="0" width="512" height="512" rx="96" ry="96" fill="url(#bg_hotelmaster_app)"/>
  <circle cx="256" cy="266" r="180" fill="url(#glow_hotelmaster_app)"/>
  <g transform="translate(102.4, 102.4) scale(1.2)" fill="white" filter="url(#shadow_hotelmaster_app)">
    <path d="M224,115.55V208a16,16,0,0,1-16,16H168a16,16,0,0,1-16-16V168a8,8,0,0,0-8-8H112a8,8,0,0,0-8,8v40a16,16,0,0,1-16,16H48a16,16,0,0,1-16-16V115.55a16,16,0,0,1,5.17-11.78l80-75.48.11-.11a16,16,0,0,1,21.53,0,1.14,1.14,0,0,0,.11.11l80,75.48A16,16,0,0,1,224,115.55Z"/>
  </g>
</svg>
