<svg xmlns="http://www.w3.org/2000/svg" viewBox="0 0 512 512" role="img" aria-label="kidfinance_app logo">
  <defs>
    <linearGradient id="bg_kidfinance_app" x1="0" y1="0" x2="1" y2="1">
      <stop offset="0%" stop-color="#1565C0"/>
      <stop offset="100%" stop-color="#00BFA5"/>
    </linearGradient>
    <filter id="shadow_kidfinance_app" x="-20%" y="-20%" width="140%" height="140%">
      <feDropShadow dx="0" dy="4" stdDeviation="8" flood-color="#000000" flood-opacity="0.25"/>
    </filter>
  </defs>
  <rect width="512" height="512" rx="96" fill="url(#bg_kidfinance_app)"/>
  <g transform="translate(128,128) scale(1.0)" fill="white" filter="url(#shadow_kidfinance_app)">
    <path d="M192,116a12,12,0,1,1-12-12A12,12,0,0,1,192,116ZM152,64H112a8,8,0,0,0,0,16h40a8,8,0,0,0,0-16Zm96,48v32a24,24,0,0,1-24,24h-2.36l-16.21,45.38A16,16,0,0,1,190.36,224H177.64a16,16,0,0,1-15.07-10.62L160.65,208h-57.3l-1.92,5.38A16,16,0,0,1,86.36,224H73.64a16,16,0,0,1-15.07-10.62L46,178.22a87.69,87.69,0,0,1-21.44-48.38A16,16,0,0,0,16,144a8,8,0,0,1-16,0,32,32,0,0,1,24.28-31A88.12,88.12,0,0,1,112,32H216a8,8,0,0,1,0,16H194.61a87.93,87.93,0,0,1,30.17,37c.43,1,.85,2,1.25,3A24,24,0,0,1,248,112Zm-16,0a8,8,0,0,0-8-8h-3.66a8,8,0,0,1-7.64-5.6A71.9,71.9,0,0,0,144,48H112A72,72,0,0,0,58.91,168.64a8,8,0,0,1,1.64,2.71L73.64,208H86.36l3.82-10.69A8,8,0,0,1,97.71,192h68.58a8,8,0,0,1,7.53,5.31L177.64,208h12.72l18.11-50.69A8,8,0,0,1,216,152h8a8,8,0,0,0,8-8Z"/>
  </g>
</svg>
