<svg xmlns="http://www.w3.org/2000/svg" viewBox="0 0 512 512" role="img" aria-label="kidmind_app logo">
  <defs>
    <linearGradient id="bg_kidmind_app" x1="0" y1="0" x2="1" y2="1">
      <stop offset="0%" stop-color="#2E7D92"/>
      <stop offset="100%" stop-color="#A8DADC"/>
    </linearGradient>
    <radialGradient id="glow_kidmind_app" cx="50%" cy="52%" r="42%">
      <stop offset="0%" stop-color="#ffffff" stop-opacity="0.35"/>
      <stop offset="60%" stop-color="#ffffff" stop-opacity="0.08"/>
      <stop offset="100%" stop-color="#ffffff" stop-opacity="0"/>
    </radialGradient>
    <filter id="shadow_kidmind_app" x="-10%" y="-10%" width="120%" height="120%">
      <feDropShadow dx="0" dy="4" stdDeviation="6" flood-color="#000000" flood-opacity="0.22"/>
    </filter>
  </defs>
  <rect x="0" y="0" width="512" height="512" rx="96" ry="96" fill="url(#bg_kidmind_app)"/>
  <circle cx="256" cy="266" r="180" fill="url(#glow_kidmind_app)"/>
  <g transform="translate(102.4, 102.4) scale(1.2)" fill="white" filter="url(#shadow_kidmind_app)">
    <path d="M128,24A104,104,0,1,0,232,128,104.12,104.12,0,0,0,128,24ZM80,108a12,12,0,1,1,12,12A12,12,0,0,1,80,108Zm92.65,43.41a64.18,64.18,0,0,1-89.3,0,8,8,0,0,1,11.3-11.32,48.17,48.17,0,0,0,66.7,0,8,8,0,0,1,11.3,11.32ZM164,120a12,12,0,1,1,12-12A12,12,0,0,1,164,120Z"/>
  </g>
</svg>
