<svg xmlns="http://www.w3.org/2000/svg" viewBox="0 0 512 512" role="img" aria-label="latamgo_delivery logo">
  <defs>
    <linearGradient id="bg_latamgo_delivery" x1="0" y1="0" x2="1" y2="1">
      <stop offset="0%" stop-color="#00ACC1"/>
      <stop offset="100%" stop-color="#FFAB00"/>
    </linearGradient>
    <filter id="shadow_latamgo_delivery" x="-20%" y="-20%" width="140%" height="140%">
      <feDropShadow dx="0" dy="4" stdDeviation="8" flood-color="#000000" flood-opacity="0.25"/>
    </filter>
  </defs>
  <rect width="512" height="512" rx="96" fill="url(#bg_latamgo_delivery)"/>
  <g transform="translate(128,128) scale(1.0)" fill="white" filter="url(#shadow_latamgo_delivery)">
    <path d="M240,104H229.2L201.42,41.5A16,16,0,0,0,186.8,32H69.2a16,16,0,0,0-14.62,9.5L26.8,104H16a8,8,0,0,0,0,16h8v80a16,16,0,0,0,16,16H64a16,16,0,0,0,16-16V184h96v16a16,16,0,0,0,16,16h24a16,16,0,0,0,16-16V120h8a8,8,0,0,0,0-16ZM69.2,48H186.8l24.89,56H44.31ZM64,200H40V184H64Zm128,0V184h24v16Zm24-32H40V120H216ZM56,144a8,8,0,0,1,8-8H80a8,8,0,0,1,0,16H64A8,8,0,0,1,56,144Zm112,0a8,8,0,0,1,8-8h16a8,8,0,0,1,0,16H176A8,8,0,0,1,168,144Z"/>
  </g>
</svg>
