<svg xmlns="http://www.w3.org/2000/svg" viewBox="0 0 512 512" role="img" aria-label="meal_planner logo">
  <defs>
    <linearGradient id="bg_meal_planner" x1="0" y1="0" x2="1" y2="1">
      <stop offset="0%" stop-color="#FF8C00"/>
      <stop offset="100%" stop-color="#4CAF50"/>
    </linearGradient>
    <radialGradient id="glow_meal_planner" cx="50%" cy="52%" r="42%">
      <stop offset="0%" stop-color="#ffffff" stop-opacity="0.35"/>
      <stop offset="60%" stop-color="#ffffff" stop-opacity="0.08"/>
      <stop offset="100%" stop-color="#ffffff" stop-opacity="0"/>
    </radialGradient>
    <filter id="shadow_meal_planner" x="-10%" y="-10%" width="120%" height="120%">
      <feDropShadow dx="0" dy="4" stdDeviation="6" flood-color="#000000" flood-opacity="0.22"/>
    </filter>
  </defs>
  <rect x="0" y="0" width="512" height="512" rx="96" ry="96" fill="url(#bg_meal_planner)"/>
  <circle cx="256" cy="266" r="180" fill="url(#glow_meal_planner)"/>
  <g transform="translate(102.4, 102.4) scale(1.2)" fill="white" filter="url(#shadow_meal_planner)">
    <path d="M120,80V48a8,8,0,0,1,16,0V80a8,8,0,0,1-16,0Zm48,8a8,8,0,0,0,8-8V48a8,8,0,0,0-16,0V80A8,8,0,0,0,168,88Zm64,40v88a16,16,0,0,1-16,16H40a16,16,0,0,1-16-16V128a16,16,0,0,1,16-16H56V88a16,16,0,0,1,16-16H184a16,16,0,0,1,16,16v24h16A16,16,0,0,1,232,128ZM88,48a8,8,0,0,0,8-8V8a8,8,0,0,0-16,0V40A8,8,0,0,0,88,48Z"/>
  </g>
</svg>
