<svg xmlns="http://www.w3.org/2000/svg" viewBox="0 0 512 512" role="img" aria-label="musicmaster_app logo">
  <defs>
    <linearGradient id="bg_musicmaster_app" x1="0" y1="0" x2="1" y2="1">
      <stop offset="0%" stop-color="#6200EA"/>
      <stop offset="100%" stop-color="#FF6D00"/>
    </linearGradient>
    <filter id="shadow_musicmaster_app" x="-20%" y="-20%" width="140%" height="140%">
      <feDropShadow dx="0" dy="4" stdDeviation="8" flood-color="#000000" flood-opacity="0.25"/>
    </filter>
  </defs>
  <rect width="512" height="512" rx="96" fill="url(#bg_musicmaster_app)"/>
  <g transform="translate(128,128) scale(1.0)" fill="white" filter="url(#shadow_musicmaster_app)">
    <path d="M210.3,56.34l-80-24A8,8,0,0,0,120,40V148.26A48,48,0,1,0,136,184V98.75l69.7,20.91A8,8,0,0,0,216,112V64A8,8,0,0,0,210.3,56.34ZM88,216a32,32,0,1,1,32-32A32,32,0,0,1,88,216ZM200,101.25l-64-19.2V50.75L200,70Z"/>
  </g>
</svg>
