<svg xmlns="http://www.w3.org/2000/svg" viewBox="0 0 512 512" role="img" aria-label="myproject_app logo">
  <defs>
    <linearGradient id="bg_myproject_app" x1="0" y1="0" x2="1" y2="1">
      <stop offset="0%" stop-color="#0D47A1"/>
      <stop offset="100%" stop-color="#448AFF"/>
    </linearGradient>
    <filter id="shadow_myproject_app" x="-20%" y="-20%" width="140%" height="140%">
      <feDropShadow dx="0" dy="4" stdDeviation="8" flood-color="#000000" flood-opacity="0.25"/>
    </filter>
  </defs>
  <rect width="512" height="512" rx="96" fill="url(#bg_myproject_app)"/>
  <g transform="translate(128,128) scale(1.0)" fill="white" filter="url(#shadow_myproject_app)">
    <path d="M221.87,83.16A104.1,104.1,0,1,1,195.67,49l22.67-22.68a8,8,0,0,1,11.32,11.32l-96,96a8,8,0,0,1-11.32-11.32l27.72-27.72a40,40,0,1,0,17.87,31.09,8,8,0,1,1,16-.9,56,56,0,1,1-22.38-41.65L184.3,60.39a87.88,87.88,0,1,0,23.13,29.67,8,8,0,0,1,14.44-6.9Z"/>
  </g>
</svg>
