<svg xmlns="http://www.w3.org/2000/svg" viewBox="0 0 512 512" role="img" aria-label="paylat_neobank logo">
  <defs>
    <linearGradient id="bg_paylat_neobank" x1="0" y1="0" x2="1" y2="1">
      <stop offset="0%" stop-color="#1565C0"/>
      <stop offset="100%" stop-color="#00BFA5"/>
    </linearGradient>
    <radialGradient id="glow_paylat_neobank" cx="50%" cy="52%" r="42%">
      <stop offset="0%" stop-color="#ffffff" stop-opacity="0.35"/>
      <stop offset="60%" stop-color="#ffffff" stop-opacity="0.08"/>
      <stop offset="100%" stop-color="#ffffff" stop-opacity="0"/>
    </radialGradient>
    <filter id="shadow_paylat_neobank" x="-10%" y="-10%" width="120%" height="120%">
      <feDropShadow dx="0" dy="4" stdDeviation="6" flood-color="#000000" flood-opacity="0.22"/>
    </filter>
  </defs>
  <rect x="0" y="0" width="512" height="512" rx="96" ry="96" fill="url(#bg_paylat_neobank)"/>
  <circle cx="256" cy="266" r="180" fill="url(#glow_paylat_neobank)"/>
  <g transform="translate(102.4, 102.4) scale(1.2)" fill="white" filter="url(#shadow_paylat_neobank)">
    <path d="M216,64H56a8,8,0,0,1,0-16H192a8,8,0,0,0,0-16H56A24,24,0,0,0,32,56V184a24,24,0,0,0,24,24H216a16,16,0,0,0,16-16V80A16,16,0,0,0,216,64Zm-36,80a12,12,0,1,1,12-12A12,12,0,0,1,180,144Z"/>
  </g>
</svg>
