<svg xmlns="http://www.w3.org/2000/svg" viewBox="0 0 512 512" role="img" aria-label="periodico_app logo">
  <defs>
    <linearGradient id="bg_periodico_app" x1="0" y1="0" x2="1" y2="1">
      <stop offset="0%" stop-color="#E91E63"/>
      <stop offset="100%" stop-color="#FF4081"/>
    </linearGradient>
    <filter id="shadow_periodico_app" x="-20%" y="-20%" width="140%" height="140%">
      <feDropShadow dx="0" dy="4" stdDeviation="8" flood-color="#000000" flood-opacity="0.25"/>
    </filter>
  </defs>
  <rect width="512" height="512" rx="96" fill="url(#bg_periodico_app)"/>
  <g transform="translate(128,128) scale(1.0)" fill="white" filter="url(#shadow_periodico_app)">
    <path d="M88,112a8,8,0,0,1,8-8h80a8,8,0,0,1,0,16H96A8,8,0,0,1,88,112Zm8,40h80a8,8,0,0,0,0-16H96a8,8,0,0,0,0,16ZM232,64V184a24,24,0,0,1-24,24H32A24,24,0,0,1,8,184.11V88a8,8,0,0,1,16,0v96a8,8,0,0,0,16,0V64A16,16,0,0,1,56,48H216A16,16,0,0,1,232,64Zm-16,0H56V184a23.84,23.84,0,0,1-1.37,8H208a8,8,0,0,0,8-8Z"/>
  </g>
</svg>
