<svg xmlns="http://www.w3.org/2000/svg" viewBox="0 0 512 512" role="img" aria-label="piano_app logo">
  <defs>
    <linearGradient id="bg_piano_app" x1="0" y1="0" x2="1" y2="1">
      <stop offset="0%" stop-color="#263238"/>
      <stop offset="100%" stop-color="#00E676"/>
    </linearGradient>
    <filter id="shadow_piano_app" x="-20%" y="-20%" width="140%" height="140%">
      <feDropShadow dx="0" dy="4" stdDeviation="8" flood-color="#000000" flood-opacity="0.25"/>
    </filter>
  </defs>
  <rect width="512" height="512" rx="96" fill="url(#bg_piano_app)"/>
  <g transform="translate(128,128) scale(1.0)" fill="white" filter="url(#shadow_piano_app)">
    <path d="M208,32H48A16,16,0,0,0,32,48V208a16,16,0,0,0,16,16H208a16,16,0,0,0,16-16V48A16,16,0,0,0,208,32ZM80,48h24v88H80Zm32,104a8,8,0,0,0,8-8V48h16v96a8,8,0,0,0,8,8h8v56H104V152Zm40-16V48h24v88ZM48,48H64v96a8,8,0,0,0,8,8H88v56H48ZM208,208H168V152h16a8,8,0,0,0,8-8V48h16V208Z"/>
  </g>
</svg>
