<svg xmlns="http://www.w3.org/2000/svg" viewBox="0 0 512 512" role="img" aria-label="plant_pal logo">
  <defs>
    <linearGradient id="bg_plant_pal" x1="0" y1="0" x2="1" y2="1">
      <stop offset="0%" stop-color="#2E7D32"/>
      <stop offset="100%" stop-color="#FFC107"/>
    </linearGradient>
    <filter id="shadow_plant_pal" x="-20%" y="-20%" width="140%" height="140%">
      <feDropShadow dx="0" dy="4" stdDeviation="8" flood-color="#000000" flood-opacity="0.25"/>
    </filter>
  </defs>
  <rect width="512" height="512" rx="96" fill="url(#bg_plant_pal)"/>
  <g transform="translate(128,128) scale(1.0)" fill="white" filter="url(#shadow_plant_pal)">
    <path d="M223.45,40.07a8,8,0,0,0-7.52-7.52C139.8,28.08,78.82,51,52.82,94a87.09,87.09,0,0,0-12.76,49c.57,15.92,5.21,32,13.79,47.85l-19.51,19.5a8,8,0,0,0,11.32,11.32l19.5-19.51C81,210.73,97.09,215.37,113,215.94q1.67.06,3.33.06A86.93,86.93,0,0,0,162,203.18C205,177.18,227.93,116.21,223.45,40.07ZM153.75,189.5c-22.75,13.78-49.68,14-76.71.77l88.63-88.62a8,8,0,0,0-11.32-11.32L65.73,179c-13.19-27-13-54,.77-76.71,22.09-36.47,74.6-56.44,141.31-54.06C210.2,114.89,190.22,167.41,153.75,189.5Z"/>
  </g>
</svg>
