<svg xmlns="http://www.w3.org/2000/svg" viewBox="0 0 512 512" role="img" aria-label="popcorn_app logo">
  <defs>
    <linearGradient id="bg_popcorn_app" x1="0" y1="0" x2="1" y2="1">
      <stop offset="0%" stop-color="#E91E63"/>
      <stop offset="100%" stop-color="#FF4081"/>
    </linearGradient>
    <radialGradient id="glow_popcorn_app" cx="50%" cy="52%" r="42%">
      <stop offset="0%" stop-color="#ffffff" stop-opacity="0.35"/>
      <stop offset="60%" stop-color="#ffffff" stop-opacity="0.08"/>
      <stop offset="100%" stop-color="#ffffff" stop-opacity="0"/>
    </radialGradient>
    <filter id="shadow_popcorn_app" x="-10%" y="-10%" width="120%" height="120%">
      <feDropShadow dx="0" dy="4" stdDeviation="6" flood-color="#000000" flood-opacity="0.22"/>
    </filter>
  </defs>
  <rect x="0" y="0" width="512" height="512" rx="96" ry="96" fill="url(#bg_popcorn_app)"/>
  <circle cx="256" cy="266" r="180" fill="url(#glow_popcorn_app)"/>
  <g transform="translate(102.4, 102.4) scale(1.2)" fill="white" filter="url(#shadow_popcorn_app)">
    <path d="M234.29,114.85l-45,38.83L203,211.75a16.4,16.4,0,0,1-24.5,17.82L128,198.49,77.47,229.57A16.4,16.4,0,0,1,53,211.75l13.76-58.07-45-38.83A16.46,16.46,0,0,1,31.08,86l59-4.76,22.76-55.08a16.36,16.36,0,0,1,30.27,0L165.9,81.27l59,4.76a16.46,16.46,0,0,1,9.37,28.82Z"/>
  </g>
</svg>
