<svg xmlns="http://www.w3.org/2000/svg" viewBox="0 0 512 512" role="img" aria-label="pro_audio_eq logo">
  <defs>
    <linearGradient id="bg_pro_audio_eq" x1="0" y1="0" x2="1" y2="1">
      <stop offset="0%" stop-color="#263238"/>
      <stop offset="100%" stop-color="#00E676"/>
    </linearGradient>
    <filter id="shadow_pro_audio_eq" x="-20%" y="-20%" width="140%" height="140%">
      <feDropShadow dx="0" dy="4" stdDeviation="8" flood-color="#000000" flood-opacity="0.25"/>
    </filter>
  </defs>
  <rect width="512" height="512" rx="96" fill="url(#bg_pro_audio_eq)"/>
  <g transform="translate(128,128) scale(1.0)" fill="white" filter="url(#shadow_pro_audio_eq)">
    <path d="M64,105V40a8,8,0,0,0-16,0v65a32,32,0,0,0,0,62v49a8,8,0,0,0,16,0V167a32,32,0,0,0,0-62Zm-8,47a16,16,0,1,1,16-16A16,16,0,0,1,56,152Zm80-95V40a8,8,0,0,0-16,0V57a32,32,0,0,0,0,62v97a8,8,0,0,0,16,0V119a32,32,0,0,0,0-62Zm-8,47a16,16,0,1,1,16-16A16,16,0,0,1,128,104Zm104,64a32.06,32.06,0,0,0-24-31V40a8,8,0,0,0-16,0v97a32,32,0,0,0,0,62v17a8,8,0,0,0,16,0V199A32.06,32.06,0,0,0,232,168Zm-32,16a16,16,0,1,1,16-16A16,16,0,0,1,200,184Z"/>
  </g>
</svg>
