<svg xmlns="http://www.w3.org/2000/svg" viewBox="0 0 512 512" role="img" aria-label="receipt_splitter logo">
  <defs>
    <linearGradient id="bg_receipt_splitter" x1="0" y1="0" x2="1" y2="1">
      <stop offset="0%" stop-color="#1565C0"/>
      <stop offset="100%" stop-color="#00BFA5"/>
    </linearGradient>
    <radialGradient id="glow_receipt_splitter" cx="50%" cy="52%" r="42%">
      <stop offset="0%" stop-color="#ffffff" stop-opacity="0.35"/>
      <stop offset="60%" stop-color="#ffffff" stop-opacity="0.08"/>
      <stop offset="100%" stop-color="#ffffff" stop-opacity="0"/>
    </radialGradient>
    <filter id="shadow_receipt_splitter" x="-10%" y="-10%" width="120%" height="120%">
      <feDropShadow dx="0" dy="4" stdDeviation="6" flood-color="#000000" flood-opacity="0.22"/>
    </filter>
  </defs>
  <rect x="0" y="0" width="512" height="512" rx="96" ry="96" fill="url(#bg_receipt_splitter)"/>
  <circle cx="256" cy="266" r="180" fill="url(#glow_receipt_splitter)"/>
  <g transform="translate(102.4, 102.4) scale(1.2)" fill="white" filter="url(#shadow_receipt_splitter)">
    <path d="M240,72H224V56a16,16,0,0,0-16-16H48A16,16,0,0,0,32,56V72H16a8,8,0,0,0-8,8V192a16,16,0,0,0,16,16H232a16,16,0,0,0,16-16V80A8,8,0,0,0,240,72ZM208,56V192H48V56Z"/>
  </g>
</svg>
