<svg xmlns="http://www.w3.org/2000/svg" viewBox="0 0 512 512" role="img" aria-label="recipefinder_app logo">
  <defs>
    <linearGradient id="bg_recipefinder_app" x1="0" y1="0" x2="1" y2="1">
      <stop offset="0%" stop-color="#FF8C00"/>
      <stop offset="100%" stop-color="#4CAF50"/>
    </linearGradient>
    <radialGradient id="glow_recipefinder_app" cx="50%" cy="52%" r="42%">
      <stop offset="0%" stop-color="#ffffff" stop-opacity="0.35"/>
      <stop offset="60%" stop-color="#ffffff" stop-opacity="0.08"/>
      <stop offset="100%" stop-color="#ffffff" stop-opacity="0"/>
    </radialGradient>
    <filter id="shadow_recipefinder_app" x="-10%" y="-10%" width="120%" height="120%">
      <feDropShadow dx="0" dy="4" stdDeviation="6" flood-color="#000000" flood-opacity="0.22"/>
    </filter>
  </defs>
  <rect x="0" y="0" width="512" height="512" rx="96" ry="96" fill="url(#bg_recipefinder_app)"/>
  <circle cx="256" cy="266" r="180" fill="url(#glow_recipefinder_app)"/>
  <g transform="translate(102.4, 102.4) scale(1.2)" fill="white" filter="url(#shadow_recipefinder_app)">
    <path d="M208,80a39.89,39.89,0,0,0-13.38,2.29,48,48,0,0,0-93.24,0A40,40,0,0,0,48,160a8,8,0,0,0,.29,2.18L64.9,222.56A8,8,0,0,0,72.6,228h110.8a8,8,0,0,0,7.7-5.44l16.6-60.38A8,8,0,0,0,208,160a40,40,0,0,0,0-80Z"/>
  </g>
</svg>
