<svg xmlns="http://www.w3.org/2000/svg" viewBox="0 0 512 512" role="img" aria-label="recipefinder_app logo">
  <defs>
    <linearGradient id="bg_recipefinder_app" x1="0" y1="0" x2="1" y2="1">
      <stop offset="0%" stop-color="#FF8C00"/>
      <stop offset="100%" stop-color="#4CAF50"/>
    </linearGradient>
    <filter id="shadow_recipefinder_app" x="-20%" y="-20%" width="140%" height="140%">
      <feDropShadow dx="0" dy="4" stdDeviation="8" flood-color="#000000" flood-opacity="0.25"/>
    </filter>
  </defs>
  <rect width="512" height="512" rx="96" fill="url(#bg_recipefinder_app)"/>
  <g transform="translate(128,128) scale(1.0)" fill="white" filter="url(#shadow_recipefinder_app)">
    <path d="M88,48V16a8,8,0,0,1,16,0V48a8,8,0,0,1-16,0Zm40,8a8,8,0,0,0,8-8V16a8,8,0,0,0-16,0V48A8,8,0,0,0,128,56Zm32,0a8,8,0,0,0,8-8V16a8,8,0,0,0-16,0V48A8,8,0,0,0,160,56Zm92.8,46.4L224,124v60a32,32,0,0,1-32,32H64a32,32,0,0,1-32-32V124L3.2,102.4a8,8,0,0,1,9.6-12.8L32,104V80a8,8,0,0,1,8-8H216a8,8,0,0,1,8,8v24l19.2-14.4a8,8,0,0,1,9.6,12.8ZM208,88H48v96a16,16,0,0,0,16,16H192a16,16,0,0,0,16-16Z"/>
  </g>
</svg>
