<svg xmlns="http://www.w3.org/2000/svg" viewBox="0 0 512 512" role="img" aria-label="rider_app logo">
  <defs>
    <linearGradient id="bg_rider_app" x1="0" y1="0" x2="1" y2="1">
      <stop offset="0%" stop-color="#37474F"/>
      <stop offset="100%" stop-color="#64B5F6"/>
    </linearGradient>
    <radialGradient id="glow_rider_app" cx="50%" cy="52%" r="42%">
      <stop offset="0%" stop-color="#ffffff" stop-opacity="0.35"/>
      <stop offset="60%" stop-color="#ffffff" stop-opacity="0.08"/>
      <stop offset="100%" stop-color="#ffffff" stop-opacity="0"/>
    </radialGradient>
    <filter id="shadow_rider_app" x="-10%" y="-10%" width="120%" height="120%">
      <feDropShadow dx="0" dy="4" stdDeviation="6" flood-color="#000000" flood-opacity="0.22"/>
    </filter>
  </defs>
  <rect x="0" y="0" width="512" height="512" rx="96" ry="96" fill="url(#bg_rider_app)"/>
  <circle cx="256" cy="266" r="180" fill="url(#glow_rider_app)"/>
  <g transform="translate(102.4, 102.4) scale(1.2)" fill="white" filter="url(#shadow_rider_app)">
    <path d="M240,112H229.2L201.42,49.5A16,16,0,0,0,186.8,40H69.2a16,16,0,0,0-14.62,9.5L26.8,112H16a8,8,0,0,0,0,16h8v80a16,16,0,0,0,16,16H64a16,16,0,0,0,16-16V192h96v16a16,16,0,0,0,16,16h24a16,16,0,0,0,16-16V128h8a8,8,0,0,0,0-16ZM69.2,56H186.8l24.89,56H44.31Z"/>
  </g>
</svg>
