<svg xmlns="http://www.w3.org/2000/svg" viewBox="0 0 512 512" role="img" aria-label="rider_app logo">
  <defs>
    <linearGradient id="bg_rider_app" x1="0" y1="0" x2="1" y2="1">
      <stop offset="0%" stop-color="#37474F"/>
      <stop offset="100%" stop-color="#64B5F6"/>
    </linearGradient>
    <filter id="shadow_rider_app" x="-20%" y="-20%" width="140%" height="140%">
      <feDropShadow dx="0" dy="4" stdDeviation="8" flood-color="#000000" flood-opacity="0.25"/>
    </filter>
  </defs>
  <rect width="512" height="512" rx="96" fill="url(#bg_rider_app)"/>
  <g transform="translate(128,128) scale(1.0)" fill="white" filter="url(#shadow_rider_app)">
    <path d="M128,64a40,40,0,1,0,40,40A40,40,0,0,0,128,64Zm0,64a24,24,0,1,1,24-24A24,24,0,0,1,128,128Zm0-112a88.1,88.1,0,0,0-88,88c0,31.4,14.51,64.68,42,96.25a254.19,254.19,0,0,0,41.45,38.3,8,8,0,0,0,9.18,0A254.19,254.19,0,0,0,174,200.25c27.45-31.57,42-64.85,42-96.25A88.1,88.1,0,0,0,128,16Zm0,206c-16.53-13-72-60.75-72-118a72,72,0,0,1,144,0C200,161.23,144.53,209,128,222Z"/>
  </g>
</svg>
