<svg xmlns="http://www.w3.org/2000/svg" viewBox="0 0 512 512" role="img" aria-label="shopping_smartlist logo">
  <defs>
    <linearGradient id="bg_shopping_smartlist" x1="0" y1="0" x2="1" y2="1">
      <stop offset="0%" stop-color="#0D47A1"/>
      <stop offset="100%" stop-color="#448AFF"/>
    </linearGradient>
    <radialGradient id="glow_shopping_smartlist" cx="50%" cy="52%" r="42%">
      <stop offset="0%" stop-color="#ffffff" stop-opacity="0.35"/>
      <stop offset="60%" stop-color="#ffffff" stop-opacity="0.08"/>
      <stop offset="100%" stop-color="#ffffff" stop-opacity="0"/>
    </radialGradient>
    <filter id="shadow_shopping_smartlist" x="-10%" y="-10%" width="120%" height="120%">
      <feDropShadow dx="0" dy="4" stdDeviation="6" flood-color="#000000" flood-opacity="0.22"/>
    </filter>
  </defs>
  <rect x="0" y="0" width="512" height="512" rx="96" ry="96" fill="url(#bg_shopping_smartlist)"/>
  <circle cx="256" cy="266" r="180" fill="url(#glow_shopping_smartlist)"/>
  <g transform="translate(102.4, 102.4) scale(1.2)" fill="white" filter="url(#shadow_shopping_smartlist)">
    <path d="M230.14,70.54,185.46,25.85A20,20,0,0,0,171.31,20H84.69a20,20,0,0,0-14.15,5.86L25.85,70.54A20,20,0,0,0,20,84.69V168a20,20,0,0,0,20,20H216a20,20,0,0,0,20-20V84.69A20,20,0,0,0,230.14,70.54Z"/>
  </g>
</svg>
