<svg xmlns="http://www.w3.org/2000/svg" viewBox="0 0 512 512" role="img" aria-label="smsblast logo">
  <defs>
    <linearGradient id="bg_smsblast" x1="0" y1="0" x2="1" y2="1">
      <stop offset="0%" stop-color="#455A64"/>
      <stop offset="100%" stop-color="#29B6F6"/>
    </linearGradient>
    <filter id="shadow_smsblast" x="-20%" y="-20%" width="140%" height="140%">
      <feDropShadow dx="0" dy="4" stdDeviation="8" flood-color="#000000" flood-opacity="0.25"/>
    </filter>
  </defs>
  <rect width="512" height="512" rx="96" fill="url(#bg_smsblast)"/>
  <g transform="translate(128,128) scale(1.0)" fill="white" filter="url(#shadow_smsblast)">
    <path d="M128,24A104,104,0,0,0,36.18,176.88L24.83,210.93a16,16,0,0,0,20.24,20.24l34.05-11.35A104,104,0,1,0,128,24Zm0,192a87.87,87.87,0,0,1-44.06-11.81,8,8,0,0,0-6.54-.67L40,216,52.47,178.6a8,8,0,0,0-.66-6.54A88,88,0,1,1,128,216Z"/>
  </g>
</svg>
