<svg xmlns="http://www.w3.org/2000/svg" viewBox="0 0 512 512" role="img" aria-label="speakercleaner logo">
  <defs>
    <linearGradient id="bg_speakercleaner" x1="0" y1="0" x2="1" y2="1">
      <stop offset="0%" stop-color="#455A64"/>
      <stop offset="100%" stop-color="#29B6F6"/>
    </linearGradient>
    <radialGradient id="glow_speakercleaner" cx="50%" cy="52%" r="42%">
      <stop offset="0%" stop-color="#ffffff" stop-opacity="0.35"/>
      <stop offset="60%" stop-color="#ffffff" stop-opacity="0.08"/>
      <stop offset="100%" stop-color="#ffffff" stop-opacity="0"/>
    </radialGradient>
    <filter id="shadow_speakercleaner" x="-10%" y="-10%" width="120%" height="120%">
      <feDropShadow dx="0" dy="4" stdDeviation="6" flood-color="#000000" flood-opacity="0.22"/>
    </filter>
  </defs>
  <rect x="0" y="0" width="512" height="512" rx="96" ry="96" fill="url(#bg_speakercleaner)"/>
  <circle cx="256" cy="266" r="180" fill="url(#glow_speakercleaner)"/>
  <g transform="translate(102.4, 102.4) scale(1.2)" fill="white" filter="url(#shadow_speakercleaner)">
    <path d="M221.8,175.94C216.25,166.38,208,139.33,208,104a80,80,0,1,0-160,0c0,35.34-8.26,62.38-13.81,71.94A16,16,0,0,0,48,200H88.81a40,40,0,0,0,78.38,0H208a16,16,0,0,0,13.8-24.06Z"/>
  </g>
</svg>
