<svg xmlns="http://www.w3.org/2000/svg" viewBox="0 0 512 512" role="img" aria-label="taskmaster_app logo">
  <defs>
    <linearGradient id="bg_taskmaster_app" x1="0" y1="0" x2="1" y2="1">
      <stop offset="0%" stop-color="#0D47A1"/>
      <stop offset="100%" stop-color="#448AFF"/>
    </linearGradient>
    <filter id="shadow_taskmaster_app" x="-20%" y="-20%" width="140%" height="140%">
      <feDropShadow dx="0" dy="4" stdDeviation="8" flood-color="#000000" flood-opacity="0.25"/>
    </filter>
  </defs>
  <rect width="512" height="512" rx="96" fill="url(#bg_taskmaster_app)"/>
  <g transform="translate(128,128) scale(1.0)" fill="white" filter="url(#shadow_taskmaster_app)">
    <path d="M173.66,98.34a8,8,0,0,1,0,11.32l-56,56a8,8,0,0,1-11.32,0l-24-24a8,8,0,0,1,11.32-11.32L112,148.69l50.34-50.35A8,8,0,0,1,173.66,98.34ZM224,48V208a16,16,0,0,1-16,16H48a16,16,0,0,1-16-16V48A16,16,0,0,1,48,32H208A16,16,0,0,1,224,48ZM208,208V48H48V208H208Z"/>
  </g>
</svg>
