<svg xmlns="http://www.w3.org/2000/svg" viewBox="0 0 512 512" role="img" aria-label="travel_packing_list logo">
  <defs>
    <linearGradient id="bg_travel_packing_list" x1="0" y1="0" x2="1" y2="1">
      <stop offset="0%" stop-color="#0D47A1"/>
      <stop offset="100%" stop-color="#448AFF"/>
    </linearGradient>
    <filter id="shadow_travel_packing_list" x="-20%" y="-20%" width="140%" height="140%">
      <feDropShadow dx="0" dy="4" stdDeviation="8" flood-color="#000000" flood-opacity="0.25"/>
    </filter>
  </defs>
  <rect width="512" height="512" rx="96" fill="url(#bg_travel_packing_list)"/>
  <g transform="translate(128,128) scale(1.0)" fill="white" filter="url(#shadow_travel_packing_list)">
    <path d="M216,64H176a48,48,0,0,0-96,0H40A16,16,0,0,0,24,80V200a16,16,0,0,0,16,16H216a16,16,0,0,0,16-16V80A16,16,0,0,0,216,64ZM128,32a32,32,0,0,1,32,32H96A32,32,0,0,1,128,32Zm88,168H40V80H80V96a8,8,0,0,0,16,0V80h64V96a8,8,0,0,0,16,0V80h40Z"/>
  </g>
</svg>
