<svg xmlns="http://www.w3.org/2000/svg" viewBox="0 0 512 512" role="img" aria-label="travel_packing_list logo">
  <defs>
    <linearGradient id="bg_travel_packing_list" x1="0" y1="0" x2="1" y2="1">
      <stop offset="0%" stop-color="#0D47A1"/>
      <stop offset="100%" stop-color="#448AFF"/>
    </linearGradient>
    <radialGradient id="glow_travel_packing_list" cx="50%" cy="52%" r="42%">
      <stop offset="0%" stop-color="#ffffff" stop-opacity="0.35"/>
      <stop offset="60%" stop-color="#ffffff" stop-opacity="0.08"/>
      <stop offset="100%" stop-color="#ffffff" stop-opacity="0"/>
    </radialGradient>
    <filter id="shadow_travel_packing_list" x="-10%" y="-10%" width="120%" height="120%">
      <feDropShadow dx="0" dy="4" stdDeviation="6" flood-color="#000000" flood-opacity="0.22"/>
    </filter>
  </defs>
  <rect x="0" y="0" width="512" height="512" rx="96" ry="96" fill="url(#bg_travel_packing_list)"/>
  <circle cx="256" cy="266" r="180" fill="url(#glow_travel_packing_list)"/>
  <g transform="translate(102.4, 102.4) scale(1.2)" fill="white" filter="url(#shadow_travel_packing_list)">
    <path d="M42.76,50A8,8,0,0,0,40,56V224a8,8,0,0,0,16,0V179.77c26.79-21.16,49.87-9.75,76.45,3.42,16.4,8.11,33.83,16.73,51.88,16.73,13.62,0,27.6-4.92,41.29-18.6A8,8,0,0,0,228,175.59V50.43a8,8,0,0,0-5.89-7.72C186.5,23.5,158.36,37.5,131.28,50.94,104.34,64.29,78.61,76.38,42.76,50Z"/>
  </g>
</svg>
