<svg xmlns="http://www.w3.org/2000/svg" viewBox="0 0 512 512" role="img" aria-label="tremortest logo">
  <defs>
    <linearGradient id="bg_tremortest" x1="0" y1="0" x2="1" y2="1">
      <stop offset="0%" stop-color="#2E7D92"/>
      <stop offset="100%" stop-color="#A8DADC"/>
    </linearGradient>
    <filter id="shadow_tremortest" x="-20%" y="-20%" width="140%" height="140%">
      <feDropShadow dx="0" dy="4" stdDeviation="8" flood-color="#000000" flood-opacity="0.25"/>
    </filter>
  </defs>
  <rect width="512" height="512" rx="96" fill="url(#bg_tremortest)"/>
  <g transform="translate(128,128) scale(1.0)" fill="white" filter="url(#shadow_tremortest)">
    <path d="M220,160a12,12,0,1,1-12-12A12,12,0,0,1,220,160Zm-4.55,39.29A48.08,48.08,0,0,1,168,240H144a48.05,48.05,0,0,1-48-48V151.49A64,64,0,0,1,40,88V40a8,8,0,0,1,8-8H72a8,8,0,0,1,0,16H56V88a48,48,0,0,0,48.64,48c26.11-.34,47.36-22.25,47.36-48.83V48H136a8,8,0,0,1,0-16h24a8,8,0,0,1,8,8V87.17c0,32.84-24.53,60.29-56,64.31V192a32,32,0,0,0,32,32h24a32.06,32.06,0,0,0,31.22-25,40,40,0,1,1,16.23.27ZM232,160a24,24,0,1,0-24,24A24,24,0,0,0,232,160Z"/>
  </g>
</svg>
