<svg xmlns="http://www.w3.org/2000/svg" viewBox="0 0 512 512" role="img" aria-label="voz_facil logo">
  <defs>
    <linearGradient id="bg_voz_facil" x1="0" y1="0" x2="1" y2="1">
      <stop offset="0%" stop-color="#455A64"/>
      <stop offset="100%" stop-color="#29B6F6"/>
    </linearGradient>
    <filter id="shadow_voz_facil" x="-20%" y="-20%" width="140%" height="140%">
      <feDropShadow dx="0" dy="4" stdDeviation="8" flood-color="#000000" flood-opacity="0.25"/>
    </filter>
  </defs>
  <rect width="512" height="512" rx="96" fill="url(#bg_voz_facil)"/>
  <g transform="translate(128,128) scale(1.0)" fill="white" filter="url(#shadow_voz_facil)">
    <path d="M128,176a48.05,48.05,0,0,0,48-48V64a48,48,0,0,0-96,0v64A48.05,48.05,0,0,0,128,176ZM96,64a32,32,0,0,1,64,0v64a32,32,0,0,1-64,0Zm40,143.6V240a8,8,0,0,1-16,0V207.6A80.11,80.11,0,0,1,48,128a8,8,0,0,1,16,0,64,64,0,0,0,128,0,8,8,0,0,1,16,0A80.11,80.11,0,0,1,136,207.6Z"/>
  </g>
</svg>
