<svg xmlns="http://www.w3.org/2000/svg" viewBox="0 0 512 512" role="img" aria-label="workout_log logo">
  <defs>
    <linearGradient id="bg_workout_log" x1="0" y1="0" x2="1" y2="1">
      <stop offset="0%" stop-color="#FF5722"/>
      <stop offset="100%" stop-color="#FF9800"/>
    </linearGradient>
    <radialGradient id="glow_workout_log" cx="50%" cy="52%" r="42%">
      <stop offset="0%" stop-color="#ffffff" stop-opacity="0.35"/>
      <stop offset="60%" stop-color="#ffffff" stop-opacity="0.08"/>
      <stop offset="100%" stop-color="#ffffff" stop-opacity="0"/>
    </radialGradient>
    <filter id="shadow_workout_log" x="-10%" y="-10%" width="120%" height="120%">
      <feDropShadow dx="0" dy="4" stdDeviation="6" flood-color="#000000" flood-opacity="0.22"/>
    </filter>
  </defs>
  <rect x="0" y="0" width="512" height="512" rx="96" ry="96" fill="url(#bg_workout_log)"/>
  <circle cx="256" cy="266" r="180" fill="url(#glow_workout_log)"/>
  <g transform="translate(102.4, 102.4) scale(1.2)" fill="white" filter="url(#shadow_workout_log)">
    <path d="M248,120H240V88a8,8,0,0,0-8-8H208a8,8,0,0,0-8,8v16H56V88a8,8,0,0,0-8-8H24a8,8,0,0,0-8,8v32H8a8,8,0,0,0,0,16h8v32a8,8,0,0,0,8,8H48a8,8,0,0,0,8-8V152H200v16a8,8,0,0,0,8,8h24a8,8,0,0,0,8-8V136h8a8,8,0,0,0,0-16Z"/>
  </g>
</svg>
