<svg xmlns="http://www.w3.org/2000/svg" viewBox="0 0 512 512" role="img" aria-label="writemaster_app logo">
  <defs>
    <linearGradient id="bg_writemaster_app" x1="0" y1="0" x2="1" y2="1">
      <stop offset="0%" stop-color="#6200EA"/>
      <stop offset="100%" stop-color="#FF6D00"/>
    </linearGradient>
    <filter id="shadow_writemaster_app" x="-20%" y="-20%" width="140%" height="140%">
      <feDropShadow dx="0" dy="4" stdDeviation="8" flood-color="#000000" flood-opacity="0.25"/>
    </filter>
  </defs>
  <rect width="512" height="512" rx="96" fill="url(#bg_writemaster_app)"/>
  <g transform="translate(128,128) scale(1.0)" fill="white" filter="url(#shadow_writemaster_app)">
    <path d="M208,24H72A32,32,0,0,0,40,56V224a8,8,0,0,0,8,8H192a8,8,0,0,0,0-16H56a16,16,0,0,1,16-16H208a8,8,0,0,0,8-8V32A8,8,0,0,0,208,24Zm-8,160H72a31.82,31.82,0,0,0-16,4.29V56A16,16,0,0,1,72,40H200Z"/>
  </g>
</svg>
