<svg xmlns="http://www.w3.org/2000/svg" viewBox="0 0 512 512" role="img" aria-label="writemaster_app logo">
  <defs>
    <linearGradient id="bg_writemaster_app" x1="0" y1="0" x2="1" y2="1">
      <stop offset="0%" stop-color="#6200EA"/>
      <stop offset="100%" stop-color="#FF6D00"/>
    </linearGradient>
    <radialGradient id="glow_writemaster_app" cx="50%" cy="52%" r="42%">
      <stop offset="0%" stop-color="#ffffff" stop-opacity="0.35"/>
      <stop offset="60%" stop-color="#ffffff" stop-opacity="0.08"/>
      <stop offset="100%" stop-color="#ffffff" stop-opacity="0"/>
    </radialGradient>
    <filter id="shadow_writemaster_app" x="-10%" y="-10%" width="120%" height="120%">
      <feDropShadow dx="0" dy="4" stdDeviation="6" flood-color="#000000" flood-opacity="0.22"/>
    </filter>
  </defs>
  <rect x="0" y="0" width="512" height="512" rx="96" ry="96" fill="url(#bg_writemaster_app)"/>
  <circle cx="256" cy="266" r="180" fill="url(#glow_writemaster_app)"/>
  <g transform="translate(102.4, 102.4) scale(1.2)" fill="white" filter="url(#shadow_writemaster_app)">
    <path d="M208,24H72A32,32,0,0,0,40,56V224a8,8,0,0,0,8,8H192a8,8,0,0,0,0-16H56a16,16,0,0,1,16-16H208a8,8,0,0,0,8-8V32A8,8,0,0,0,208,24Z"/>
  </g>
</svg>
