<svg xmlns="http://www.w3.org/2000/svg" viewBox="0 0 512 512" role="img" aria-label="yogaflow_levels_app logo">
  <defs>
    <linearGradient id="bg_yogaflow_levels_app" x1="0" y1="0" x2="1" y2="1">
      <stop offset="0%" stop-color="#FF5722"/>
      <stop offset="100%" stop-color="#FF9800"/>
    </linearGradient>
    <radialGradient id="glow_yogaflow_levels_app" cx="50%" cy="52%" r="42%">
      <stop offset="0%" stop-color="#ffffff" stop-opacity="0.35"/>
      <stop offset="60%" stop-color="#ffffff" stop-opacity="0.08"/>
      <stop offset="100%" stop-color="#ffffff" stop-opacity="0"/>
    </radialGradient>
    <filter id="shadow_yogaflow_levels_app" x="-10%" y="-10%" width="120%" height="120%">
      <feDropShadow dx="0" dy="4" stdDeviation="6" flood-color="#000000" flood-opacity="0.22"/>
    </filter>
  </defs>
  <rect x="0" y="0" width="512" height="512" rx="96" ry="96" fill="url(#bg_yogaflow_levels_app)"/>
  <circle cx="256" cy="266" r="180" fill="url(#glow_yogaflow_levels_app)"/>
  <g transform="translate(102.4, 102.4) scale(1.2)" fill="white" filter="url(#shadow_yogaflow_levels_app)">
    <path d="M232,208a8,8,0,0,1-8,8H32a8,8,0,0,1-8-8V48a8,8,0,0,1,16,0V147.31l42.34-42.35a8,8,0,0,1,11.32,0L128,132.69l42.34-42.35a8,8,0,0,1,11.32,11.32l-48,48a8,8,0,0,1-11.32,0L88,117.31,40,165.31V200H224A8,8,0,0,1,232,208Z"/>
  </g>
</svg>
