<svg xmlns="http://www.w3.org/2000/svg" viewBox="0 0 512 512" role="img" aria-label="zenmind_app logo">
  <defs>
    <linearGradient id="bg_zenmind_app" x1="0" y1="0" x2="1" y2="1">
      <stop offset="0%" stop-color="#2E7D92"/>
      <stop offset="100%" stop-color="#A8DADC"/>
    </linearGradient>
    <radialGradient id="glow_zenmind_app" cx="50%" cy="52%" r="42%">
      <stop offset="0%" stop-color="#ffffff" stop-opacity="0.35"/>
      <stop offset="60%" stop-color="#ffffff" stop-opacity="0.08"/>
      <stop offset="100%" stop-color="#ffffff" stop-opacity="0"/>
    </radialGradient>
    <filter id="shadow_zenmind_app" x="-10%" y="-10%" width="120%" height="120%">
      <feDropShadow dx="0" dy="4" stdDeviation="6" flood-color="#000000" flood-opacity="0.22"/>
    </filter>
  </defs>
  <rect x="0" y="0" width="512" height="512" rx="96" ry="96" fill="url(#bg_zenmind_app)"/>
  <circle cx="256" cy="266" r="180" fill="url(#glow_zenmind_app)"/>
  <g transform="translate(102.4, 102.4) scale(1.2)" fill="white" filter="url(#shadow_zenmind_app)">
    <path d="M223.45,40.07a8,8,0,0,0-7.52-7.52C139.8,28.08,78.82,51,52.82,94c-14.5,24-17.46,52.42-8.69,82.89,3.26,11.33,8.31,20.3,14.9,26.74a72.1,72.1,0,0,1,4.93-20.46,71.85,71.85,0,0,1,24.48-30.53A135.9,135.9,0,0,1,124,120.77C78.07,140.17,57.15,182.58,44,229.51a8,8,0,0,0,15.42,4.37C70.49,198,93.5,162.83,144,144.67c40.68-14.61,77.49-44.09,77.49-97.18Q223.53,45.47,223.45,40.07Z"/>
  </g>
</svg>
